<?xml version="1.0" standalone="no"?>
<!DOCTYPE svg PUBLIC "-//W3C//DTD SVG 20010904//EN"
 "http://www.w3.org/TR/2001/REC-SVG-20010904/DTD/svg10.dtd">
<svg version="1.0" xmlns="http://www.w3.org/2000/svg"
 width="470.000000pt" height="470.000000pt" viewBox="0 0 470.000000 470.000000"
 preserveAspectRatio="xMidYMid meet">
<metadata>
Created by potrace 1.11, written by Peter Selinger 2001-2013
</metadata>
<g transform="translate(0.000000,470.000000) scale(0.100000,-0.100000)"
fill="#000000" stroke="none">
<path d="M2085 4678 c-132 -15 -322 -57 -465 -104 -778 -254 -1370 -902 -1554
-1699 -39 -172 -56 -328 -56 -528 0 -194 9 -291 40 -453 74 -381 245 -741 494
-1044 74 -90 263 -273 362 -350 320 -251 703 -416 1104 -474 1000 -145 1977
362 2433 1261 190 376 271 769 246 1205 -28 507 -225 993 -560 1383 -389 454
-930 738 -1534 805 -108 12 -398 11 -510 -2z m542 -293 c722 -93 1175 -369
1587 -966 167 -243 230 -452 229 -759 0 -235 -41 -450 -128 -686 -87 -231
-180 -381 -334 -534 -304 -302 -721 -469 -972 -390 -102 32 -153 79 -228 207
-33 57 -52 78 -89 99 -315 178 -491 416 -557 752 -20 106 -35 290 -28 350 8
68 -15 131 -79 216 -39 52 -63 74 -97 88 -107 46 -138 64 -176 104 -39 39 -95
132 -109 181 -7 20 -5 21 23 10 41 -15 61 3 61 56 0 84 -85 110 -102 32 -9
-39 -23 122 -22 245 1 141 12 195 51 241 48 57 144 77 208 43 75 -39 258 -205
347 -315 99 -121 115 -234 58 -414 -36 -116 -35 -146 10 -235 37 -73 75 -118
149 -173 53 -40 60 -42 141 -47 47 -3 140 -5 207 -5 120 0 121 0 160 31 45 36
156 180 198 258 l30 55 -43 44 c-23 23 -42 46 -42 50 0 13 22 7 51 -14 16 -11
37 -18 45 -15 19 7 42 61 55 129 13 74 19 88 31 81 7 -5 9 -33 4 -80 -3 -41
-3 -74 1 -74 3 0 30 23 59 50 29 28 58 50 63 50 22 0 10 -32 -29 -74 -22 -24
-40 -48 -40 -54 0 -6 24 -12 57 -14 81 -4 79 -24 -4 -31 -80 -8 -88 -15 -153
-133 -59 -108 -181 -294 -212 -322 -27 -25 -161 -55 -298 -67 l-75 -7 -59 71
c-32 39 -63 71 -68 71 -5 0 19 -33 52 -72 108 -128 200 -301 263 -493 46 -141
58 -207 65 -355 7 -138 9 -149 40 -212 60 -122 137 -165 279 -156 133 8 284
88 484 256 310 261 506 576 564 906 22 128 20 325 -5 447 -59 287 -184 495
-483 797 -131 133 -206 196 -340 286 -186 124 -396 212 -627 262 -158 35 -476
44 -655 19 -214 -29 -388 -73 -600 -152 -260 -96 -413 -190 -575 -353 -320
-319 -475 -780 -431 -1275 15 -163 52 -350 91 -456 137 -375 528 -848 919
-1111 190 -127 389 -214 606 -264 102 -23 149 -28 315 -32 301 -7 444 18 823
144 186 61 254 89 374 154 81 43 149 77 152 75 7 -7 -118 -142 -193 -209 -89
-80 -121 -99 -325 -202 -254 -127 -402 -161 -736 -171 -284 -8 -484 25 -733
123 -335 130 -620 321 -897 599 -201 203 -328 370 -430 567 -165 320 -256 694
-242 998 22 484 282 999 662 1310 295 241 737 424 1135 469 129 14 439 12 567
-4z m-1191 -1417 c4 -6 10 -39 13 -72 l6 -61 50 0 c43 0 50 -3 50 -20 0 -17
-8 -21 -55 -25 -83 -8 -84 -10 -46 -98 46 -108 84 -180 118 -228 25 -35 40
-45 87 -58 88 -25 247 -46 343 -46 100 0 94 6 101 -103 3 -50 2 -57 -12 -51
-9 4 -118 33 -243 65 -124 32 -239 64 -255 72 -20 11 -58 66 -133 192 -71 119
-111 177 -125 180 -11 2 -40 7 -65 10 -48 6 -79 20 -68 30 3 4 25 9 47 12 55
8 53 26 -9 104 -46 58 -58 79 -44 79 14 0 52 -26 86 -58 34 -32 40 -34 63 -24
22 10 43 43 59 95 6 20 22 22 32 5z m2270 -483 c3 -8 -6 -38 -20 -67 -24 -48
-25 -53 -9 -70 21 -24 43 -23 98 4 79 38 71 1 -11 -47 -24 -14 -44 -31 -44
-38 0 -7 23 -30 50 -50 28 -21 50 -42 50 -47 0 -15 -33 -12 -76 6 -41 17 -125
14 -149 -6 -7 -6 -65 -28 -130 -50 -240 -81 -447 -219 -544 -364 l-26 -39 -9
34 c-4 19 -16 62 -26 96 l-18 61 44 17 c51 19 145 88 259 189 95 85 130 106
179 106 39 0 174 25 223 41 37 12 42 36 18 79 -17 29 -19 76 -5 85 6 3 13 -2
16 -12 18 -56 24 -65 39 -53 7 6 17 26 20 43 8 38 43 97 56 97 5 0 12 -7 15
-15z m-1383 -842 c12 -16 38 -46 59 -68 l37 -41 -190 -12 c-206 -13 -240 -22
-256 -69 -11 -34 3 -266 17 -293 6 -11 28 -25 50 -31 49 -15 68 -35 52 -51 -9
-9 -24 -8 -59 5 -27 9 -51 17 -56 17 -4 0 -4 -18 -1 -40 4 -21 3 -51 0 -66 -6
-23 -9 -25 -21 -13 -8 8 -20 32 -28 53 -13 39 -37 61 -37 35 0 -18 -30 -49
-48 -49 -10 0 -12 6 -8 23 4 12 10 38 13 57 5 33 2 37 -28 50 -47 21 -52 45
-8 37 74 -14 74 -14 77 22 2 19 -4 75 -12 126 -21 119 -21 209 -1 229 20 20
113 45 370 99 44 10 58 6 78 -20z"/>
<path d="M2136 3354 c-21 -21 -20 -42 4 -81 19 -31 34 -38 70 -33 38 5 40 57
4 99 -28 34 -54 39 -78 15z"/>
</g>
</svg>
